<svg xmlns="http://www.w3.org/2000/svg" enable-background="new 0 0 64 64" viewBox="0 0 64 64" id="customer-care"><path d="M60.5,23.02h-4.08C55.67,10.21,45.03,0,32.03,0C19.02,0,8.39,10.21,7.63,23.02H3.5c-0.67,0-1.22,0.54-1.22,1.22v14.91
		c0,0.67,0.54,1.22,1.22,1.22h9.89c0.67,0,1.22-0.54,1.22-1.22V24.24c0-0.67-0.54-1.22-1.22-1.22h-3.33
		c0.75-11.48,10.3-20.59,21.96-20.59c11.66,0,21.21,9.11,21.96,20.59H50.6c-0.67,0-1.22,0.54-1.22,1.22v14.91
		c0,0.51,0.32,0.95,0.76,1.13h3.69c-1.03,7.92-6.27,14.51-13.4,17.48v-1.77c-0.06-0.61-0.56-1.1-1.19-1.1H27.97
		c-0.51,0-0.94,0.31-1.13,0.76v7.59c0.18,0.44,0.62,0.76,1.13,0.76h11.28c0.63,0,1.13-0.49,1.19-1.1v-2.56
		c8.49-3.12,14.76-10.8,15.84-20.07h4.67c0.44-0.18,0.76-0.62,0.76-1.13V24.24C61.72,23.57,61.17,23.02,60.5,23.02z M12.18,25.46
		v12.47H4.72V25.46H12.18z M38.03,61.56h-8.84v-4.24h8.84V61.56z M59.28,37.93h-7.46V25.46h7.46V37.93z"></path></svg>